<svg width="40" height="40" viewBox="0 0 40 40" fill="none" xmlns="http://www.w3.org/2000/svg">
<rect width="40" height="40" rx="10" fill="#FBE0DC"/>
<g clip-path="url(#clip0_1_51)">
<path d="M29.3608 28.2168L24.6007 23.2662C25.8246 21.8113 26.4952 19.9807 26.4952 18.075C26.4952 13.6225 22.8727 10 18.4202 10C13.9677 10 10.3452 13.6225 10.3452 18.075C10.3452 22.5275 13.9677 26.15 18.4202 26.15C20.0917 26.15 21.6846 25.6458 23.0465 24.6888L27.8427 29.677C28.0431 29.8852 28.3128 30 28.6017 30C28.8752 30 29.1347 29.8957 29.3316 29.7061C29.7501 29.3034 29.7635 28.6357 29.3608 28.2168ZM18.4202 12.1065C21.7113 12.1065 24.3887 14.7839 24.3887 18.075C24.3887 21.3661 21.7113 24.0435 18.4202 24.0435C15.1291 24.0435 12.4517 21.3661 12.4517 18.075C12.4517 14.7839 15.1291 12.1065 18.4202 12.1065Z" fill="#FF868E"/>
</g>
<defs>
<clipPath id="clip0_1_51">
<rect width="20" height="20" fill="white" transform="translate(10 10)"/>
</clipPath>
</defs>
</svg>
