<svg width="40" height="40" viewBox="0 0 40 40" fill="none" xmlns="http://www.w3.org/2000/svg">
<rect width="40" height="40" rx="10" fill="#FF868E"/>
<g clip-path="url(#clip0_1_1325)">
<path d="M29.3613 28.2168L24.6012 23.2662C25.8251 21.8113 26.4957 19.9807 26.4957 18.075C26.4957 13.6225 22.8732 10 18.4207 10C13.9682 10 10.3457 13.6225 10.3457 18.075C10.3457 22.5275 13.9682 26.15 18.4207 26.15C20.0922 26.15 21.6851 25.6458 23.047 24.6888L27.8432 29.677C28.0436 29.8852 28.3133 30 28.6022 30C28.8757 30 29.1352 29.8957 29.3321 29.7061C29.7506 29.3034 29.764 28.6357 29.3613 28.2168ZM18.4207 12.1065C21.7118 12.1065 24.3892 14.7839 24.3892 18.075C24.3892 21.3661 21.7118 24.0435 18.4207 24.0435C15.1296 24.0435 12.4522 21.3661 12.4522 18.075C12.4522 14.7839 15.1296 12.1065 18.4207 12.1065Z" fill="white"/>
</g>
<defs>
<clipPath id="clip0_1_1325">
<rect width="20" height="20" fill="white" transform="translate(10 10)"/>
</clipPath>
</defs>
</svg>
